<svg xmlns="http://www.w3.org/2000/svg" width="640" height="360" viewBox="0 0 640 360" role="img" aria-label="Communication &amp; Media — Cameroonian graduate">
  <defs>
    <linearGradient id="g" x1="0" y1="0" x2="1" y2="1">
      <stop offset="0" stop-color="#8e44ad"/>
      <stop offset="1" stop-color="#5e2d73"/>
    </linearGradient>
  </defs>
  <rect width="640" height="360" fill="url(#g)"/>
  <!-- academic building watermark -->
  <g fill="#ffffff" opacity="0.10" transform="translate(320,118)">
    <polygon points="-150,40 0,-26 150,40"/>
    <rect x="-140" y="40" width="280" height="12"/>
    <rect x="-150" y="190" width="300" height="14"/>
  </g>
  
  <g transform="translate(320,196)">
    <!-- gown -->
    <path d="M-66 108 L-30 0 L30 0 L66 108 Z" fill="#1f2733"/>
    <!-- stole (school colour) -->
    <path d="M-18 2 L-8 104 L0 104 L-8 2 Z" fill="#8e44ad"/>
    <path d="M18 2 L8 104 L0 104 L8 2 Z" fill="#8e44ad"/>
    <!-- neck -->
    <rect x="-9" y="-22" width="18" height="26" fill="#8d5524"/>
    <!-- head -->
    <circle cx="0" cy="-46" r="31" fill="#8d5524"/>
    <circle cx="-30" cy="-46" r="5" fill="#8d5524"/>
    <circle cx="30" cy="-46" r="5" fill="#8d5524"/>
    <!-- hair -->
    <path d="M-31 -54 Q0 -86 31 -54 Q31 -74 0 -78 Q-31 -74 -31 -54 Z" fill="#241a12"/>
    <!-- mortarboard -->
    <polygon points="0,-92 48,-74 0,-56 -48,-74" fill="#10151c"/>
    <circle cx="0" cy="-74" r="4" fill="#fcd116"/>
    <path d="M0 -74 L44 -74 L44 -44" stroke="#fcd116" stroke-width="2.5" fill="none"/>
    <circle cx="44" cy="-40" r="5" fill="#fcd116"/>
  </g>
  <!-- field icon badge -->
  <g transform="translate(486,250)">
    <circle cx="0" cy="0" r="40" fill="#ffffff"/>
    <circle cx="0" cy="0" r="40" fill="none" stroke="#5e2d73" stroke-width="3"/>
    <text x="0" y="2" font-size="42" text-anchor="middle" dominant-baseline="central">🎙️</text>
  </g>
  <!-- Cameroon flag accent -->
  <g transform="translate(22,22)">
    <rect x="0" y="0" width="22" height="46" fill="#007a5e"/>
    <rect x="22" y="0" width="22" height="46" fill="#ce1126"/>
    <rect x="44" y="0" width="22" height="46" fill="#fcd116"/>
    <text x="33" y="30" font-size="20" text-anchor="middle" fill="#fcd116">★</text>
  </g>
  <!-- label strip -->
  <rect x="0" y="306" width="640" height="54" fill="#000000" opacity="0.32"/>
  <text x="320" y="340" font-size="28" font-family="Segoe UI, Roboto, Arial, sans-serif" font-weight="700" text-anchor="middle" fill="#ffffff">Communication &amp; Media</text>
</svg>
