<svg xmlns="http://www.w3.org/2000/svg" width="640" height="360" viewBox="0 0 640 360" role="img" aria-label="Law &amp; Justice">
  <defs>
    <linearGradient id="g" x1="0" y1="0" x2="1" y2="1">
      <stop offset="0" stop-color="#34495e"/>
      <stop offset="1" stop-color="#2c3e50"/>
    </linearGradient>
  </defs>
  <rect width="640" height="360" fill="url(#g)"/>
  <!-- academic building watermark -->
  <g fill="#ffffff" opacity="0.13" transform="translate(320,120)">
    <polygon points="-120,42 0,-28 120,42"/>
    <rect x="-112" y="42" width="224" height="14"/>
    <rect x="-100" y="62" width="18" height="120"/>
    <rect x="-62" y="62" width="18" height="120"/>
    <rect x="-24" y="62" width="18" height="120"/>
    <rect x="14" y="62" width="18" height="120"/>
    <rect x="52" y="62" width="18" height="120"/>
    <rect x="90" y="62" width="18" height="120"/>
    <rect x="-114" y="184" width="228" height="16"/>
  </g>
  <!-- Cameroon flag accent -->
  <g transform="translate(22,22)">
    <rect x="0" y="0" width="22" height="46" fill="#007a5e"/>
    <rect x="22" y="0" width="22" height="46" fill="#ce1126"/>
    <rect x="44" y="0" width="22" height="46" fill="#fcd116"/>
    <text x="33" y="30" font-size="20" text-anchor="middle" fill="#fcd116">★</text>
  </g>
  <!-- field icon -->
  <text x="320" y="172" font-size="104" text-anchor="middle" dominant-baseline="central">⚖️</text>
  <!-- field label -->
  <text x="320" y="318" font-size="30" font-family="Segoe UI, Roboto, Arial, sans-serif" font-weight="700" text-anchor="middle" fill="#ffffff">Law &amp; Justice</text>
</svg>
